<svg width="82" height="82" viewBox="0 0 82 82" fill="none" xmlns="http://www.w3.org/2000/svg">
<path d="M41 81C63.0914 81 81 63.0914 81 41C81 18.9086 63.0914 1 41 1C18.9086 1 1 18.9086 1 41C1 63.0914 18.9086 81 41 81Z" stroke="#FFFFFF" stroke-miterlimit="10"/>
<path d="M41 81C52.0457 81 61 63.0914 61 41C61 18.9086 52.0457 1 41 1C29.9543 1 21 18.9086 21 41C21 63.0914 29.9543 81 41 81Z" stroke="#FFFFFF" stroke-miterlimit="10"/>
<path d="M41 81V1" stroke="#FFFFFF" stroke-miterlimit="10"/>
<path d="M41 81C63.0914 81 81 63.0914 81 41C81 18.9086 63.0914 1 41 1C18.9086 1 1 18.9086 1 41C1 63.0914 18.9086 81 41 81Z" stroke="#FFFFFF" stroke-miterlimit="10"/>
<path d="M41 61C63.0914 61 81 52.0457 81 41C81 29.9543 63.0914 21 41 21C18.9086 21 1 29.9543 1 41C1 52.0457 18.9086 61 41 61Z" stroke="#FFFFFF" stroke-miterlimit="10"/>
<path d="M1 41H81" stroke="#FFFFFF" stroke-miterlimit="10"/>
</svg>
