<svg width="82" height="82" viewBox="0 0 82 82" fill="none" xmlns="http://www.w3.org/2000/svg">
<path d="M4.55553 40.9775C2.28888 37.0686 1 32.4934 1 27.6517C1 12.9488 12.9555 1 27.6664 1C42.3774 1 54.3329 12.9488 54.3329 27.6517C54.3329 32.4934 53.044 37.0686 50.7774 40.9775C46.1552 33.0265 37.533 27.6517 27.6664 27.6517C17.7999 27.6517 9.17771 33.0265 4.55553 40.9775Z" stroke="#FFFFFF" stroke-miterlimit="10"/>
<path d="M40.9997 77.4017C37.0886 79.6671 32.5109 80.9553 27.6665 80.9553C12.9555 80.9553 1 69.0064 1 54.3036C1 39.6007 12.9555 27.6519 27.6665 27.6519C32.5109 27.6519 37.0886 28.94 40.9997 31.2054C33.0442 35.825 27.6665 44.4424 27.6665 54.3036C27.6665 64.2091 33.0442 72.7821 40.9997 77.4017Z" stroke="#FFFFFF" stroke-miterlimit="10"/>
<path d="M77.4444 41.021C79.711 44.9299 80.9999 49.5051 80.9999 54.3468C80.9999 69.0497 69.0444 80.9985 54.3334 80.9985C39.6225 80.9985 27.667 69.0497 27.667 54.3468C27.667 49.5051 28.9559 44.9299 31.2225 41.021C35.8447 48.9721 44.4669 54.3468 54.3334 54.3468C64.2 54.3024 72.8222 48.9721 77.4444 41.021Z" stroke="#FFFFFF" stroke-miterlimit="10"/>
<path d="M41.0002 4.59799C44.9113 2.3326 49.4891 1.04443 54.3335 1.04443C69.0445 1.04443 80.9999 12.9933 80.9999 27.6961C80.9999 42.399 69.0445 54.3478 54.3335 54.3478C49.4891 54.3478 44.9113 53.0597 41.0002 50.7943C48.9557 46.1746 54.3335 37.5573 54.3335 27.6961C54.3335 17.7906 48.9557 9.21762 41.0002 4.59799Z" stroke="#FFFFFF" stroke-miterlimit="10"/>
</svg>
