<svg width="82" height="77" viewBox="0 0 82 77" fill="none" xmlns="http://www.w3.org/2000/svg">
<path d="M41.0004 43.8442C52.8315 43.8442 62.4226 34.2535 62.4226 22.4223C62.4226 10.5911 52.8315 1 41.0004 1C29.1692 1 19.5781 10.5911 19.5781 22.4223C19.5781 34.2535 29.1692 43.8442 41.0004 43.8442Z" stroke="#FFFFFF" stroke-miterlimit="10"/>
<path d="M59.5785 75.9779C71.4097 75.9779 81.0007 66.3868 81.0007 54.5556C81.0007 42.7244 71.4097 33.1333 59.5785 33.1333C47.7473 33.1333 38.1562 42.7244 38.1562 54.5556C38.1562 66.3868 47.7473 75.9779 59.5785 75.9779Z" stroke="#FFFFFF" stroke-miterlimit="10"/>
<path d="M22.4222 75.9778C34.2534 75.9778 43.8445 66.3867 43.8445 54.5555C43.8445 42.7243 34.2534 33.1332 22.4222 33.1332C10.5911 33.1332 1 42.7243 1 54.5555C1 66.3867 10.5911 75.9778 22.4222 75.9778Z" stroke="#FFFFFF" stroke-miterlimit="10"/>
</svg>
