<svg width="122" height="24" viewBox="0 0 122 24" fill="none" xmlns="http://www.w3.org/2000/svg">
<path d="M11.8651 15.7104C11.3844 15.4588 11.0214 15.09 10.7767 14.6052C10.5314 14.1207 10.4092 13.5197 10.4092 12.8018V4.92004H15.1872V2.68058H10.4093V0.109375L5.32284 3.91258L5.32031 3.91497V4.92004H8.00631V12.8892C8.00631 14.5956 8.47707 15.9386 9.42002 16.9172C10.3621 17.8968 11.6533 18.3863 13.293 18.3863H15.272V16.0886H13.6038C12.9254 16.0886 12.3459 15.9628 11.8651 15.7104Z" fill="#414040"/>
<path d="M30.4224 14.6929C29.3668 15.7983 28.0286 16.3509 26.4078 16.3509C25.3523 16.3509 24.391 16.0991 23.5243 15.5947C22.6573 15.0907 21.9834 14.3924 21.5026 13.5006C21.0221 12.6089 20.782 11.6199 20.782 10.5339C20.782 8.88589 21.3143 7.50444 22.3794 6.38922C23.4437 5.27442 24.7867 4.71686 26.4078 4.71686C28.0286 4.71686 29.3667 5.26949 30.4224 6.37457C31.4778 7.47979 32.0056 8.86646 32.0056 10.5336C32.0056 12.2014 31.4778 13.5878 30.4224 14.6929ZM26.5775 2.33203C25.3712 2.33203 24.2543 2.5746 23.2276 3.05904C22.1999 3.54403 21.3285 4.22257 20.6125 5.09494L20.1317 2.68081H18.4921V23.9995H20.8952V16.2925C22.3839 17.9209 24.2778 18.7357 26.5775 18.7357C28.8579 18.7357 30.7378 17.9555 32.2178 16.3941C33.697 14.8336 34.4372 12.8801 34.4372 10.5334C34.4372 8.1679 33.697 6.20989 32.2178 4.65826C30.7378 3.10749 28.8579 2.33203 26.5775 2.33203Z" fill="#414040"/>
<path d="M40.1781 5.06606L39.7822 2.68123H38.0859V18.3868H40.4891V9.86489C40.4891 8.31397 40.8708 7.10677 41.634 6.24383C42.3972 5.38146 43.467 4.94971 44.8426 4.94971H46.3978V2.59375H45.0407C42.9107 2.59375 41.29 3.4178 40.1781 5.06606Z" fill="#414040"/>
<path d="M59.4435 14.7077C58.3784 15.8032 57.0306 16.351 55.4005 16.351C53.77 16.351 52.4223 15.8032 51.3574 14.7077C50.2923 13.6125 49.76 12.2209 49.76 10.534C49.76 8.84701 50.2923 7.45625 51.3574 6.36033C52.4221 5.26511 53.7697 4.71714 55.4005 4.71714C57.0303 4.71714 58.3781 5.26511 59.4435 6.36033C60.5077 7.45625 61.0406 8.84701 61.0406 10.534C61.0406 12.2209 60.5077 13.6125 59.4435 14.7077ZM59.5282 3.39358C58.2936 2.68601 56.9131 2.33203 55.3863 2.33203C53.0679 2.33203 51.1406 3.10777 49.6048 4.65855C48.0684 6.21031 47.3008 8.16875 47.3008 10.5339C47.3008 12.0856 47.6493 13.486 48.3466 14.7366C49.0437 15.9873 50.0144 16.9667 51.2584 17.6744C52.5023 18.3824 53.8778 18.736 55.386 18.736C57.7045 18.736 59.636 17.9557 61.1819 16.3944C62.727 14.8339 63.4999 12.8804 63.4999 10.5339C63.4999 8.98267 63.1464 7.58149 62.4398 6.33089C61.7332 5.08058 60.7622 4.10184 59.5282 3.39358Z" fill="#414040"/>
<path d="M79.194 9.19622C79.364 8.30469 79.6931 7.51415 80.184 6.82588C80.6735 6.13748 81.2911 5.60911 82.0355 5.24075C82.7793 4.87253 83.6048 4.68813 84.5093 4.68813C85.4135 4.68813 86.2334 4.86758 86.9689 5.22594C87.7034 5.58515 88.3161 6.10861 88.8059 6.79687C89.296 7.48528 89.626 8.28497 89.7956 9.19622H79.194ZM84.5093 2.33203C82.3035 2.33203 80.4563 3.1127 78.9676 4.67348C77.4786 6.2344 76.7344 8.18326 76.7344 10.5194C76.7344 12.8563 77.4786 14.8097 78.9676 16.3802C80.4563 17.9508 82.3035 18.7358 84.5093 18.7358C86.1675 18.7358 87.6379 18.2852 88.9197 17.3835C90.2007 16.482 91.1623 15.2168 91.8031 13.5882H89.2867C88.7968 14.4606 88.142 15.1345 87.3222 15.6094C86.5024 16.0849 85.5641 16.3223 84.5093 16.3223C83.0767 16.3223 81.8704 15.8811 80.8902 14.9987C79.9103 14.1166 79.3256 12.948 79.1377 11.4941H92.171C92.2079 11.1065 92.2269 10.8057 92.2269 10.5926C92.2269 8.26581 91.5106 6.30765 90.0788 4.71729C88.6464 3.12735 86.7893 2.33203 84.5093 2.33203Z" fill="#414040"/>
<path d="M105.525 15.4637C104.648 16.0556 103.654 16.3507 102.542 16.3507C101.505 16.3507 100.567 16.0939 99.7289 15.5799C98.8899 15.0667 98.2348 14.3685 97.7639 13.4858C97.293 12.604 97.0574 11.6199 97.0574 10.5337C97.0574 8.8859 97.5802 7.50444 98.6265 6.38922C99.6722 5.27456 100.977 4.71686 102.542 4.71686C103.654 4.71686 104.657 5.00789 105.553 5.58952C106.448 6.17115 107.122 6.96634 107.574 7.97465H109.949C109.478 6.26864 108.578 4.9014 107.249 3.87351C105.92 2.8459 104.352 2.33203 102.542 2.33203C100.28 2.33203 98.391 3.11271 96.8737 4.6732C95.3562 6.23426 94.5977 8.18777 94.5977 10.5337C94.5977 12.0659 94.9415 13.462 95.6292 14.7218C96.3173 15.9825 97.2693 16.9669 98.4845 17.6741C99.7006 18.3821 101.052 18.7358 102.542 18.7358C104.332 18.7358 105.901 18.2172 107.249 17.1796C108.596 16.1428 109.506 14.7509 109.977 13.006H107.546C107.074 14.0529 106.4 14.8722 105.525 15.4637Z" fill="#414040"/>
<path d="M0.0625 7.95013V18.3878H2.46566V6.44922L1.98939 6.45626L0.0625 7.95013Z" fill="#414040"/>
<path d="M0 0V4.34751L5.82403 0H0Z" fill="#E52D2D"/>
<path d="M71.8846 15.7104C71.4038 15.4588 71.0408 15.09 70.7961 14.6052C70.5508 14.1207 70.4286 13.5197 70.4286 12.8018V4.92004H75.2066V2.68058H70.4287V0.109375L65.3422 3.91258L65.3398 3.91497V4.92004H68.0257V12.8892C68.0257 14.5956 68.4965 15.9386 69.4394 16.9172C70.3815 17.8968 71.6727 18.3863 73.3123 18.3863H75.2914V16.0886H73.6232C72.9448 16.0886 72.3653 15.9628 71.8846 15.7104Z" fill="#414040"/>
<path d="M117.908 15.7104C117.427 15.4588 117.064 15.09 116.82 14.6052C116.574 14.1207 116.452 13.5197 116.452 12.8018V4.92004H121.23V2.68058H116.452V0.109375L111.366 3.91258L111.363 3.91497V4.92004H114.049V12.8892C114.049 14.5956 114.52 15.9386 115.463 16.9172C116.405 17.8968 117.696 18.3863 119.336 18.3863H121.315V16.0886H119.647C118.968 16.0886 118.389 15.9628 117.908 15.7104Z" fill="#414040"/>
</svg>
