<svg id="visual" viewBox="0 0 540 960" width="540" height="960" xmlns="http://www.w3.org/2000/svg" xmlns:xlink="http://www.w3.org/1999/xlink" version="1.1"><path d="M89 960L115.2 948.5C141.3 937 193.7 914 214 891.2C234.3 868.3 222.7 845.7 208 822.8C193.3 800 175.7 777 161.8 754.2C148 731.3 138 708.7 150 685.8C162 663 196 640 209 617.2C222 594.3 214 571.7 207.2 548.8C200.3 526 194.7 503 189 480C183.3 457 177.7 434 178 411.2C178.3 388.3 184.7 365.7 194 342.8C203.3 320 215.7 297 223.7 274.2C231.7 251.3 235.3 228.7 214.8 205.8C194.3 183 149.7 160 143.8 137.2C138 114.3 171 91.7 173.3 68.8C175.7 46 147.3 23 133.2 11.5L119 0L540 0L540 11.5C540 23 540 46 540 68.8C540 91.7 540 114.3 540 137.2C540 160 540 183 540 205.8C540 228.7 540 251.3 540 274.2C540 297 540 320 540 342.8C540 365.7 540 388.3 540 411.2C540 434 540 457 540 480C540 503 540 526 540 548.8C540 571.7 540 594.3 540 617.2C540 640 540 663 540 685.8C540 708.7 540 731.3 540 754.2C540 777 540 800 540 822.8C540 845.7 540 868.3 540 891.2C540 914 540 937 540 948.5L540 960Z" fill="#ef991f"></path><path d="M249 960L242.2 948.5C235.3 937 221.7 914 218.8 891.2C216 868.3 224 845.7 215.3 822.8C206.7 800 181.3 777 187.3 754.2C193.3 731.3 230.7 708.7 250.8 685.8C271 663 274 640 256 617.2C238 594.3 199 571.7 179.5 548.8C160 526 160 503 172.2 480C184.3 457 208.7 434 228 411.2C247.3 388.3 261.7 365.7 268.5 342.8C275.3 320 274.7 297 274.3 274.2C274 251.3 274 228.7 260 205.8C246 183 218 160 219.3 137.2C220.7 114.3 251.3 91.7 257.2 68.8C263 46 244 23 234.5 11.5L225 0L540 0L540 11.5C540 23 540 46 540 68.8C540 91.7 540 114.3 540 137.2C540 160 540 183 540 205.8C540 228.7 540 251.3 540 274.2C540 297 540 320 540 342.8C540 365.7 540 388.3 540 411.2C540 434 540 457 540 480C540 503 540 526 540 548.8C540 571.7 540 594.3 540 617.2C540 640 540 663 540 685.8C540 708.7 540 731.3 540 754.2C540 777 540 800 540 822.8C540 845.7 540 868.3 540 891.2C540 914 540 937 540 948.5L540 960Z" fill="#f1773f"></path><path d="M222 960L233 948.5C244 937 266 914 264.8 891.2C263.7 868.3 239.3 845.7 226.3 822.8C213.3 800 211.7 777 210 754.2C208.3 731.3 206.7 708.7 213.5 685.8C220.3 663 235.7 640 253.7 617.2C271.7 594.3 292.3 571.7 301.3 548.8C310.3 526 307.7 503 303.8 480C300 457 295 434 282.3 411.2C269.7 388.3 249.3 365.7 251.2 342.8C253 320 277 297 291.3 274.2C305.7 251.3 310.3 228.7 298.8 205.8C287.3 183 259.7 160 243.3 137.2C227 114.3 222 91.7 222.8 68.8C223.7 46 230.3 23 233.7 11.5L237 0L540 0L540 11.5C540 23 540 46 540 68.8C540 91.7 540 114.3 540 137.2C540 160 540 183 540 205.8C540 228.7 540 251.3 540 274.2C540 297 540 320 540 342.8C540 365.7 540 388.3 540 411.2C540 434 540 457 540 480C540 503 540 526 540 548.8C540 571.7 540 594.3 540 617.2C540 640 540 663 540 685.8C540 708.7 540 731.3 540 754.2C540 777 540 800 540 822.8C540 845.7 540 868.3 540 891.2C540 914 540 937 540 948.5L540 960Z" fill="#e45b59"></path><path d="M360 960L343.2 948.5C326.3 937 292.7 914 287.5 891.2C282.3 868.3 305.7 845.7 302.8 822.8C300 800 271 777 272.5 754.2C274 731.3 306 708.7 311.8 685.8C317.7 663 297.3 640 298.7 617.2C300 594.3 323 571.7 319.2 548.8C315.3 526 284.7 503 279 480C273.3 457 292.7 434 290.8 411.2C289 388.3 266 365.7 269 342.8C272 320 301 297 315.7 274.2C330.3 251.3 330.7 228.7 318.3 205.8C306 183 281 160 279.5 137.2C278 114.3 300 91.7 315.2 68.8C330.3 46 338.7 23 342.8 11.5L347 0L540 0L540 11.5C540 23 540 46 540 68.8C540 91.7 540 114.3 540 137.2C540 160 540 183 540 205.8C540 228.7 540 251.3 540 274.2C540 297 540 320 540 342.8C540 365.7 540 388.3 540 411.2C540 434 540 457 540 480C540 503 540 526 540 548.8C540 571.7 540 594.3 540 617.2C540 640 540 663 540 685.8C540 708.7 540 731.3 540 754.2C540 777 540 800 540 822.8C540 845.7 540 868.3 540 891.2C540 914 540 937 540 948.5L540 960Z" fill="#c9496e"></path><path d="M353 960L358.3 948.5C363.7 937 374.3 914 374.2 891.2C374 868.3 363 845.7 357.7 822.8C352.3 800 352.7 777 358.7 754.2C364.7 731.3 376.3 708.7 373.5 685.8C370.7 663 353.3 640 343.5 617.2C333.7 594.3 331.3 571.7 331.2 548.8C331 526 333 503 340.7 480C348.3 457 361.7 434 355.7 411.2C349.7 388.3 324.3 365.7 312.5 342.8C300.7 320 302.3 297 304.7 274.2C307 251.3 310 228.7 317 205.8C324 183 335 160 348.3 137.2C361.7 114.3 377.3 91.7 381.5 68.8C385.7 46 378.3 23 374.7 11.5L371 0L540 0L540 11.5C540 23 540 46 540 68.8C540 91.7 540 114.3 540 137.2C540 160 540 183 540 205.8C540 228.7 540 251.3 540 274.2C540 297 540 320 540 342.8C540 365.7 540 388.3 540 411.2C540 434 540 457 540 480C540 503 540 526 540 548.8C540 571.7 540 594.3 540 617.2C540 640 540 663 540 685.8C540 708.7 540 731.3 540 754.2C540 777 540 800 540 822.8C540 845.7 540 868.3 540 891.2C540 914 540 937 540 948.5L540 960Z" fill="#a3437a"></path><path d="M396 960L388 948.5C380 937 364 914 366.8 891.2C369.7 868.3 391.3 845.7 405 822.8C418.7 800 424.3 777 420.2 754.2C416 731.3 402 708.7 398.2 685.8C394.3 663 400.7 640 405.3 617.2C410 594.3 413 571.7 404.7 548.8C396.3 526 376.7 503 368.3 480C360 457 363 434 363 411.2C363 388.3 360 365.7 357.3 342.8C354.7 320 352.3 297 360.3 274.2C368.3 251.3 386.7 228.7 399.8 205.8C413 183 421 160 423.8 137.2C426.7 114.3 424.3 91.7 415.3 68.8C406.3 46 390.7 23 382.8 11.5L375 0L540 0L540 11.5C540 23 540 46 540 68.8C540 91.7 540 114.3 540 137.2C540 160 540 183 540 205.8C540 228.7 540 251.3 540 274.2C540 297 540 320 540 342.8C540 365.7 540 388.3 540 411.2C540 434 540 457 540 480C540 503 540 526 540 548.8C540 571.7 540 594.3 540 617.2C540 640 540 663 540 685.8C540 708.7 540 731.3 540 754.2C540 777 540 800 540 822.8C540 845.7 540 868.3 540 891.2C540 914 540 937 540 948.5L540 960Z" fill="#77417c"></path><path d="M446 960L446 948.5C446 937 446 914 439.5 891.2C433 868.3 420 845.7 421.3 822.8C422.7 800 438.3 777 445 754.2C451.7 731.3 449.3 708.7 443.5 685.8C437.7 663 428.3 640 428.8 617.2C429.3 594.3 439.7 571.7 441.3 548.8C443 526 436 503 428.2 480C420.3 457 411.7 434 407.8 411.2C404 388.3 405 365.7 412.3 342.8C419.7 320 433.3 297 434.5 274.2C435.7 251.3 424.3 228.7 426.8 205.8C429.3 183 445.7 160 454.3 137.2C463 114.3 464 91.7 454.7 68.8C445.3 46 425.7 23 415.8 11.5L406 0L540 0L540 11.5C540 23 540 46 540 68.8C540 91.7 540 114.3 540 137.2C540 160 540 183 540 205.8C540 228.7 540 251.3 540 274.2C540 297 540 320 540 342.8C540 365.7 540 388.3 540 411.2C540 434 540 457 540 480C540 503 540 526 540 548.8C540 571.7 540 594.3 540 617.2C540 640 540 663 540 685.8C540 708.7 540 731.3 540 754.2C540 777 540 800 540 822.8C540 845.7 540 868.3 540 891.2C540 914 540 937 540 948.5L540 960Z" fill="#493d72"></path><path d="M508 960L506.8 948.5C505.7 937 503.3 914 494.8 891.2C486.3 868.3 471.7 845.7 464 822.8C456.3 800 455.7 777 462 754.2C468.3 731.3 481.7 708.7 489.5 685.8C497.3 663 499.7 640 495.7 617.2C491.7 594.3 481.3 571.7 478.3 548.8C475.3 526 479.7 503 479.7 480C479.7 457 475.3 434 476.5 411.2C477.7 388.3 484.3 365.7 484.8 342.8C485.3 320 479.7 297 480.5 274.2C481.3 251.3 488.7 228.7 494.5 205.8C500.3 183 504.7 160 504.7 137.2C504.7 114.3 500.3 91.7 496.7 68.8C493 46 490 23 488.5 11.5L487 0L540 0L540 11.5C540 23 540 46 540 68.8C540 91.7 540 114.3 540 137.2C540 160 540 183 540 205.8C540 228.7 540 251.3 540 274.2C540 297 540 320 540 342.8C540 365.7 540 388.3 540 411.2C540 434 540 457 540 480C540 503 540 526 540 548.8C540 571.7 540 594.3 540 617.2C540 640 540 663 540 685.8C540 708.7 540 731.3 540 754.2C540 777 540 800 540 822.8C540 845.7 540 868.3 540 891.2C540 914 540 937 540 948.5L540 960Z" fill="#1c355e"></path></svg>