<svg id="visual" viewBox="0 0 540 960" width="540" height="960" xmlns="http://www.w3.org/2000/svg" xmlns:xlink="http://www.w3.org/1999/xlink" version="1.1"><g stroke-width="1" stroke-linejoin="bevel"><path d="M265 442.4L253 366.1L200 448.4Z" fill="#1c355e" stroke="#1c355e"></path><path d="M253 366.1L184 365.1L200 448.4Z" fill="#b7b5c6" stroke="#b7b5c6"></path><path d="M265 442.4L344 434.4L253 366.1Z" fill="#757896" stroke="#757896"></path><path d="M200 448.4L266 523.6L265 442.4Z" fill="#304169" stroke="#304169"></path><path d="M265 442.4L353 520.6L344 434.4Z" fill="#1c355e" stroke="#1c355e"></path><path d="M72 423.4L161 519.6L200 448.4Z" fill="#545c7f" stroke="#545c7f"></path><path d="M200 448.4L161 519.6L266 523.6Z" fill="#424e74" stroke="#424e74"></path><path d="M365 342.1L271 275.8L253 366.1Z" fill="#8587a2" stroke="#8587a2"></path><path d="M253 366.1L200 256.8L184 365.1Z" fill="#b7b5c6" stroke="#b7b5c6"></path><path d="M344 434.4L365 342.1L253 366.1Z" fill="#b7b5c6" stroke="#b7b5c6"></path><path d="M271 275.8L200 256.8L253 366.1Z" fill="#b7b5c6" stroke="#b7b5c6"></path><path d="M184 365.1L72 423.4L200 448.4Z" fill="#b7b5c6" stroke="#b7b5c6"></path><path d="M87 340.1L72 423.4L184 365.1Z" fill="#9696ae" stroke="#9696ae"></path><path d="M200 256.8L87 340.1L184 365.1Z" fill="#757896" stroke="#757896"></path><path d="M266 523.6L353 520.6L265 442.4Z" fill="#304169" stroke="#304169"></path><path d="M451 437.4L437 343.1L365 342.1Z" fill="#757896" stroke="#757896"></path><path d="M365 342.1L345 277.8L271 275.8Z" fill="#424e74" stroke="#424e74"></path><path d="M284 165.5L163 194.5L200 256.8Z" fill="#646a8a" stroke="#646a8a"></path><path d="M71 591.9L200 594.9L161 519.6Z" fill="#c7c5d3" stroke="#c7c5d3"></path><path d="M161 519.6L200 594.9L266 523.6Z" fill="#424e74" stroke="#424e74"></path><path d="M266 523.6L279 610.9L353 520.6Z" fill="#545c7f" stroke="#545c7f"></path><path d="M72 423.4L80 541.6L161 519.6Z" fill="#646a8a" stroke="#646a8a"></path><path d="M200 256.8L95 254.8L87 340.1Z" fill="#1c355e" stroke="#1c355e"></path><path d="M0 343.1L0 445.4L72 423.4Z" fill="#b7b5c6" stroke="#b7b5c6"></path><path d="M200 594.9L279 610.9L266 523.6Z" fill="#1c355e" stroke="#1c355e"></path><path d="M451 437.4L365 342.1L344 434.4Z" fill="#8587a2" stroke="#8587a2"></path><path d="M365 342.1L437 343.1L345 277.8Z" fill="#b7b5c6" stroke="#b7b5c6"></path><path d="M461 524.6L451 437.4L353 520.6Z" fill="#646a8a" stroke="#646a8a"></path><path d="M353 520.6L451 437.4L344 434.4Z" fill="#545c7f" stroke="#545c7f"></path><path d="M200 256.8L163 194.5L95 254.8Z" fill="#b7b5c6" stroke="#b7b5c6"></path><path d="M284 165.5L200 256.8L271 275.8Z" fill="#8587a2" stroke="#8587a2"></path><path d="M0 343.1L72 423.4L87 340.1Z" fill="#646a8a" stroke="#646a8a"></path><path d="M72 423.4L0 502.6L80 541.6Z" fill="#646a8a" stroke="#646a8a"></path><path d="M0 245.8L0 343.1L87 340.1Z" fill="#b7b5c6" stroke="#b7b5c6"></path><path d="M0 502.6L71 591.9L80 541.6Z" fill="#b7b5c6" stroke="#b7b5c6"></path><path d="M80 541.6L71 591.9L161 519.6Z" fill="#424e74" stroke="#424e74"></path><path d="M200 594.9L251 679.2L279 610.9Z" fill="#9696ae" stroke="#9696ae"></path><path d="M0 445.4L0 502.6L72 423.4Z" fill="#9696ae" stroke="#9696ae"></path><path d="M367 186.5L284 165.5L345 277.8Z" fill="#646a8a" stroke="#646a8a"></path><path d="M345 277.8L284 165.5L271 275.8Z" fill="#a6a5ba" stroke="#a6a5ba"></path><path d="M378 621.9L461 524.6L353 520.6Z" fill="#8587a2" stroke="#8587a2"></path><path d="M380 695.2L378 621.9L279 610.9Z" fill="#646a8a" stroke="#646a8a"></path><path d="M279 610.9L378 621.9L353 520.6Z" fill="#b7b5c6" stroke="#b7b5c6"></path><path d="M453 241.8L367 186.5L345 277.8Z" fill="#a6a5ba" stroke="#a6a5ba"></path><path d="M189 699.2L251 679.2L200 594.9Z" fill="#545c7f" stroke="#545c7f"></path><path d="M437 343.1L453 241.8L345 277.8Z" fill="#545c7f" stroke="#545c7f"></path><path d="M540 275.8L453 241.8L437 343.1Z" fill="#646a8a" stroke="#646a8a"></path><path d="M540 341.1L437 343.1L451 437.4Z" fill="#1c355e" stroke="#1c355e"></path><path d="M86 160.5L0 245.8L95 254.8Z" fill="#c7c5d3" stroke="#c7c5d3"></path><path d="M95 254.8L0 245.8L87 340.1Z" fill="#304169" stroke="#304169"></path><path d="M161 100.3L86 160.5L163 194.5Z" fill="#a6a5ba" stroke="#a6a5ba"></path><path d="M163 194.5L86 160.5L95 254.8Z" fill="#646a8a" stroke="#646a8a"></path><path d="M71 591.9L189 699.2L200 594.9Z" fill="#757896" stroke="#757896"></path><path d="M462 693.2L455 607.9L378 621.9Z" fill="#1c355e" stroke="#1c355e"></path><path d="M378 621.9L455 607.9L461 524.6Z" fill="#545c7f" stroke="#545c7f"></path><path d="M350 73.3L255 102.3L284 165.5Z" fill="#9696ae" stroke="#9696ae"></path><path d="M284 165.5L255 102.3L163 194.5Z" fill="#1c355e" stroke="#1c355e"></path><path d="M350 73.3L284 165.5L367 186.5Z" fill="#646a8a" stroke="#646a8a"></path><path d="M0 502.6L0 617.9L71 591.9Z" fill="#1c355e" stroke="#1c355e"></path><path d="M71 591.9L71 699.2L189 699.2Z" fill="#c7c5d3" stroke="#c7c5d3"></path><path d="M540 512.6L451 437.4L461 524.6Z" fill="#424e74" stroke="#424e74"></path><path d="M540 512.6L540 426.4L451 437.4Z" fill="#646a8a" stroke="#646a8a"></path><path d="M255 102.3L161 100.3L163 194.5Z" fill="#c7c5d3" stroke="#c7c5d3"></path><path d="M540 426.4L540 341.1L451 437.4Z" fill="#b7b5c6" stroke="#b7b5c6"></path><path d="M540 184.5L447 172.5L453 241.8Z" fill="#424e74" stroke="#424e74"></path><path d="M453 241.8L447 172.5L367 186.5Z" fill="#545c7f" stroke="#545c7f"></path><path d="M251 679.2L380 695.2L279 610.9Z" fill="#9696ae" stroke="#9696ae"></path><path d="M274 778.5L380 695.2L251 679.2Z" fill="#646a8a" stroke="#646a8a"></path><path d="M540 597.9L540 512.6L461 524.6Z" fill="#646a8a" stroke="#646a8a"></path><path d="M540 597.9L461 524.6L455 607.9Z" fill="#c7c5d3" stroke="#c7c5d3"></path><path d="M0 617.9L71 699.2L71 591.9Z" fill="#b7b5c6" stroke="#b7b5c6"></path><path d="M0 86.3L0 161.5L86 160.5Z" fill="#646a8a" stroke="#646a8a"></path><path d="M86 160.5L0 161.5L0 245.8Z" fill="#304169" stroke="#304169"></path><path d="M540 341.1L540 275.8L437 343.1Z" fill="#b7b5c6" stroke="#b7b5c6"></path><path d="M447 172.5L350 73.3L367 186.5Z" fill="#8587a2" stroke="#8587a2"></path><path d="M255 102.3L184 0L161 100.3Z" fill="#c7c5d3" stroke="#c7c5d3"></path><path d="M462 693.2L540 597.9L455 607.9Z" fill="#646a8a" stroke="#646a8a"></path><path d="M380 695.2L462 693.2L378 621.9Z" fill="#646a8a" stroke="#646a8a"></path><path d="M99 765.5L197 777.5L189 699.2Z" fill="#646a8a" stroke="#646a8a"></path><path d="M189 699.2L197 777.5L251 679.2Z" fill="#1c355e" stroke="#1c355e"></path><path d="M380 695.2L455 794.5L462 693.2Z" fill="#1c355e" stroke="#1c355e"></path><path d="M161 100.3L73 71.3L86 160.5Z" fill="#545c7f" stroke="#545c7f"></path><path d="M82 0L73 71.3L161 100.3Z" fill="#8587a2" stroke="#8587a2"></path><path d="M197 777.5L274 778.5L251 679.2Z" fill="#c7c5d3" stroke="#c7c5d3"></path><path d="M0 770.5L99 765.5L71 699.2Z" fill="#9696ae" stroke="#9696ae"></path><path d="M71 699.2L99 765.5L189 699.2Z" fill="#424e74" stroke="#424e74"></path><path d="M0 617.9L0 712.2L71 699.2Z" fill="#424e74" stroke="#424e74"></path><path d="M447 172.5L466 74.3L350 73.3Z" fill="#757896" stroke="#757896"></path><path d="M540 275.8L540 184.5L453 241.8Z" fill="#757896" stroke="#757896"></path><path d="M73 71.3L0 86.3L86 160.5Z" fill="#8587a2" stroke="#8587a2"></path><path d="M540 184.5L466 74.3L447 172.5Z" fill="#b7b5c6" stroke="#b7b5c6"></path><path d="M349 0L270 0L350 73.3Z" fill="#8587a2" stroke="#8587a2"></path><path d="M350 73.3L270 0L255 102.3Z" fill="#c7c5d3" stroke="#c7c5d3"></path><path d="M73 71.3L0 0L0 86.3Z" fill="#545c7f" stroke="#545c7f"></path><path d="M270 0L184 0L255 102.3Z" fill="#424e74" stroke="#424e74"></path><path d="M289 884.7L274 778.5L197 777.5Z" fill="#646a8a" stroke="#646a8a"></path><path d="M289 884.7L372 802.5L274 778.5Z" fill="#9696ae" stroke="#9696ae"></path><path d="M274 778.5L372 802.5L380 695.2Z" fill="#646a8a" stroke="#646a8a"></path><path d="M442 0L349 0L350 73.3Z" fill="#1c355e" stroke="#1c355e"></path><path d="M455 794.5L540 701.2L462 693.2Z" fill="#9696ae" stroke="#9696ae"></path><path d="M462 693.2L540 701.2L540 597.9Z" fill="#a6a5ba" stroke="#a6a5ba"></path><path d="M0 712.2L0 770.5L71 699.2Z" fill="#304169" stroke="#304169"></path><path d="M99 765.5L170 872.7L197 777.5Z" fill="#304169" stroke="#304169"></path><path d="M184 0L82 0L161 100.3Z" fill="#b7b5c6" stroke="#b7b5c6"></path><path d="M372 802.5L455 794.5L380 695.2Z" fill="#9696ae" stroke="#9696ae"></path><path d="M540 184.5L540 76.3L466 74.3Z" fill="#a6a5ba" stroke="#a6a5ba"></path><path d="M466 74.3L442 0L350 73.3Z" fill="#a6a5ba" stroke="#a6a5ba"></path><path d="M540 0L442 0L466 74.3Z" fill="#545c7f" stroke="#545c7f"></path><path d="M76 862.7L170 872.7L99 765.5Z" fill="#304169" stroke="#304169"></path><path d="M372 802.5L448 854.7L455 794.5Z" fill="#a6a5ba" stroke="#a6a5ba"></path><path d="M82 0L0 0L73 71.3Z" fill="#545c7f" stroke="#545c7f"></path><path d="M0 770.5L76 862.7L99 765.5Z" fill="#1c355e" stroke="#1c355e"></path><path d="M170 872.7L289 884.7L197 777.5Z" fill="#1c355e" stroke="#1c355e"></path><path d="M289 884.7L366 877.7L372 802.5Z" fill="#c7c5d3" stroke="#c7c5d3"></path><path d="M540 852.7L540 793.5L455 794.5Z" fill="#9696ae" stroke="#9696ae"></path><path d="M455 794.5L540 793.5L540 701.2Z" fill="#1c355e" stroke="#1c355e"></path><path d="M366 877.7L448 854.7L372 802.5Z" fill="#a6a5ba" stroke="#a6a5ba"></path><path d="M540 76.3L540 0L466 74.3Z" fill="#304169" stroke="#304169"></path><path d="M0 770.5L0 872.7L76 862.7Z" fill="#8587a2" stroke="#8587a2"></path><path d="M81 960L195 960L170 872.7Z" fill="#b7b5c6" stroke="#b7b5c6"></path><path d="M170 872.7L195 960L289 884.7Z" fill="#646a8a" stroke="#646a8a"></path><path d="M468 960L540 852.7L448 854.7Z" fill="#304169" stroke="#304169"></path><path d="M448 854.7L540 852.7L455 794.5Z" fill="#b7b5c6" stroke="#b7b5c6"></path><path d="M81 960L170 872.7L76 862.7Z" fill="#1c355e" stroke="#1c355e"></path><path d="M289 884.7L375 960L366 877.7Z" fill="#304169" stroke="#304169"></path><path d="M366 877.7L375 960L448 854.7Z" fill="#1c355e" stroke="#1c355e"></path><path d="M195 960L267 960L289 884.7Z" fill="#304169" stroke="#304169"></path><path d="M267 960L375 960L289 884.7Z" fill="#1c355e" stroke="#1c355e"></path><path d="M0 872.7L81 960L76 862.7Z" fill="#304169" stroke="#304169"></path><path d="M0 872.7L0 960L81 960Z" fill="#757896" stroke="#757896"></path><path d="M375 960L468 960L448 854.7Z" fill="#a6a5ba" stroke="#a6a5ba"></path><path d="M468 960L540 960L540 852.7Z" fill="#424e74" stroke="#424e74"></path></g></svg>