<svg xmlns="http://www.w3.org/2000/svg" xmlns:xlink="http://www.w3.org/1999/xlink" version="1.0" width="480" height="500"><defs><radialGradient xlink:href="#a" id="d" gradientUnits="userSpaceOnUse" gradientTransform="matrix(1 0 0 .0763 -31.41 -105.171)" cx="353.377" cy="147.479" fx="353.377" fy="147.479" r="44.017"/><radialGradient xlink:href="#a" id="b" gradientUnits="userSpaceOnUse" cx="228.395" cy="273.521" fx="228.395" fy="273.521" r="12.374" gradientTransform="translate(102.603 124.305) scale(.44573)"/><linearGradient id="a"><stop style="stop-color:#fff;stop-opacity:.8041237" offset="0"/><stop style="stop-color:#fff;stop-opacity:0" offset="1"/></linearGradient></defs><path style="fill:#000;fill-opacity:1;fill-rule:evenodd;stroke:none;stroke-width:1px;stroke-linecap:butt;stroke-linejoin:miter;stroke-opacity:1" d="M135.083 89.938 190.759 55.7c4.608-2.833 6.907-3.14 10.063-2.625-.094-3.046 2.123-6.692 5.937-9.062l52.727-32.758c3.481-2.163 6.943-2.03 9.28 0l57.409 49.851c2.909 3.174 2.057 5.708.638 8.268 3.526-.915 7.424-.914 10.872 2.077l56.947 49.406c3.271 2.838 3.734 8.507 2.828 11.755 2.42-1.525 7.942-1.129 11.049 1.68l59.75 54.005c2.299 2.078 3.22 5.926.796 10.96l-26.396 53.879c-.689 1.225-1.305 1.49-2.97 2.476 1.905-.112 1.362 2.47.66 4.072l-20.592 41.776c-1.102 2.072-3.363 3.896-5.625 5.056 1.7.193 1.993 1.878 1.207 3.398l-16.2 34.565c-.803 1.67-1.895 3.407-4.238 5.473l-46.117 34.118c-.753.295-1.47 1.615-2.85.118.222 2.262-1 3.472-2.913 5.276l-28.494 22.707-208.66-103.224 22.45-207.89c.783-7.248 3.84-9.32 6.766-11.12z"/><g style="opacity:.7"><path style="fill:#e6e621;fill-opacity:1;fill-rule:evenodd;stroke:none" d="m488.819 230.848-22.089 44.91c-.764 1.606-3.202 4.418-4.272 5.227l-37.609 27.617c-2.11 1.597-3.001-.33-1.558-3.477l14.416-34.265c1.311-2.859 2.776-5.6 5.001-7.413l43.343-33.52c2.343-1.909 3.81-1.27 2.768.92zM426.25 279.8l-19.352 41.432c-.722 1.548-2.372 2.86-3.753 3.947l-45.592 35.893c-2.767 2.178-3.17-.526-1.835-3.677l14.07-33.207c1.178-2.78 2.63-5.1 4.8-6.797l47.6-37.202c2.286-1.786 5.047-2.5 4.061-.39zm36.34 6.972-18.974 38.835c-.698 1.465-1.409 2.657-2.735 3.672l-41.423 31.144c-3.152 2.412-3.54.937-1.98-2.304l16.216-33.685c1.244-2.584 2.476-4.872 4.56-6.456l41.182-31.305c2.194-1.667 4.107-1.898 3.155.1zm-61.04 47.542-17.834 38.047c-.695 1.482-2.43 2.781-5.756 5.461l-45.471 36.642 14.448-37.352c1.045-2.7 3.01-5.118 5.082-6.756l45.159-35.669c2.182-1.723 5.32-2.395 4.372-.373zm-23.22 52.579-10.656 25.037c-.341 1.083-1.18 2.497-2.184 3.165l-33.571 26.192-16.106-8.942 58.845-46.816c3.35-2.666 4.285-.024 3.672 1.364zm58.182-48.246-15.951 33.228c-.656 1.376-4.492 4.526-5.736 5.483l-38.202 28.148c-1.258.634-2.223.846-1.393-.76l13.757-29.97c1.129-2.449 3.344-5.099 5.303-6.588l38.947-29.544c2.062-1.568 4.17-1.874 3.275.004z" transform="translate(-24.24 -26.8)"/></g><path style="fill:#355ee5;fill-opacity:1;fill-rule:evenodd;stroke:none" d="m236.201 72.574 51.318-32.476c1.914-1.212 3.714-.583 4.896.434l50.339 43.282c2.02 1.819 1.918 5.086-.408 6.293l-48.382 32.297c-1.72 1.156-5.268 1.25-6.693 0l-51.441-45.12c-1.488-1.218-1.218-3.53.371-4.71zm141.132 125.421 46.047-34.831c1.792-1.356 6.121-.928 7.292.082l54.687 48.547c1.42 1.225 2.135 5.282.622 6.496l-46.814 34.712c-1.604 1.288-6.588 1.267-8.38-.348l-54.17-48.767c-1.419-1.277-.85-4.706.716-5.891zm-70.058-62.445 47.572-32.56c1.854-1.27 6.142-1.073 7.311-.062l50.705 43.84c2.308 1.994 2.152 5.936.579 7.069l-46.43 33.442c-3.254 2.343-6.63 1.482-9.093-.737L307.05 140.71c-1.416-1.276-1.394-4.053.225-5.16zm-141.096-18.052 52.27-32.604c3.209-2.136 6.24-1.616 8.539.427l48.165 42.81c2.597 2.309 2.709 7.032.047 8.917l-47.58 33c-3.25 2.302-8.282 1.288-10.7-.947l-49.792-46.009c-1.39-1.285-2.572-4.515-.95-5.594zm72.466 63.46 48.979-33.562c1.812-1.241 6.013-1.055 7.15-.06l49.598 43.371c4.336 3.791 4.152 8.949 1.544 10.828l-55.931 40.292-52.782-52.887c-2.777-2.783-.763-6.471 1.442-7.982zm73.969 67.735 48.807-36.125c1.76-1.302 6.017-1.08 7.126-.06l52.836 48.58c2.188 2.013 2.056 5.733.564 6.892l-48.913 37.958c-3.087 2.396-6.5 1.486-8.863-.719l-51.776-48.328c-2.487-2.322-2.181-6.422.219-8.198z" transform="translate(-24.24 -26.8)"/><path style="fill:#000;fill-opacity:1;fill-rule:evenodd;stroke:none;stroke-width:1px;stroke-linecap:butt;stroke-linejoin:miter;stroke-opacity:1" d="M316.51 377.7c-1.174-5.672-3.5-11-3.5-11s4.084-3.833 2-13.25l-31.306-141.377c-2.112-9.538-5.127-15.892-17.324-20.506L89.633 124.703c-1.87-1.362-10.162-3.295-15.773.183L18.51 159.2c-4.07 2.523-8.27 6.512-4.376 18.5l19 58.5c1.523 4.687 8.875 7.186 8.875 7.186s-4.932 3.942-2.375 11.814l19.125 58.875c.872 3.844 5.647 6.135 5.647 6.135s-3.659 1.504-1.772 7.24l15.75 47.875c1.614 4.905 3.002 10.516 8.25 13.625l46 27.25c4.887 2.817 5.92-1.462 5.92-1.462s-.536 3.62 4.67 7.052l50.535 30.035c7.137 4.174 10.983-1.253 10.983-1.253s-2.85 4.244 5.255 8.982l49.692 29.051c4.563 2.667 8.635 2.172 12.82-1.155l52.782-41.943c3.428-2.724 4.236-4.497 2.608-12.728l-11.39-55.079z"/><g style="opacity:.9"><path style="fill:#e6e621;fill-opacity:1;fill-rule:evenodd;stroke:none" d="m300.25 241.477 12.242 57.328c.784 3.674-.358 9.633-2.612 11.29l-50.951 37.23c-5.561 4.09-8.605-.12-9.33-3.018l-15.088-60.394c-1.295-5.182 1.756-8.78 4.337-10.521l52.056-35.11c2.717-1.832 8.221-2.068 9.345 3.195zm20.131 84.167 12.148 56.536c.797 3.491-1.472 8.816-3.562 10.472l-45.772 35.27c-3.479 2.756-9.919 2.658-10.89-1.319l-13.763-57.936c-1.209-4.946 2.295-9.45 4.66-11.242l48.51-34.35c3.19-2.419 7.528-2.433 8.67 2.569zm17.543 81.893 11.6 53.463c.73 3.437-.57 7.808-2.623 9.428l-46.117 36.508c-5.095 4.02-8.131 2.072-9.112-1.822l-12.93-54.65c-1.22-4.843 2.72-8.092 5.05-9.839l45.626-35.118c3.144-2.357 7.46-2.894 8.506 2.03z" transform="translate(-24.24 -26.8)"/></g><path style="fill:#355ee5;fill-opacity:1;fill-rule:evenodd;stroke:none;stroke-width:1px;stroke-linecap:butt;stroke-linejoin:miter;stroke-opacity:1" d="m147.572 208.523 51.08-35.895c3.036-2.02 7.884-1.553 11.599.053l51.479 20.04c3.437 1.487 3.636 4.795 1.249 6.44l-54.051 36.24c-4.268 2.942-8.704 2.966-12.255 1.35l-47.945-19.468c-4.54-2.066-5.505-5.867-1.156-8.76z"/><path style="fill:#355ee5;fill-opacity:1;fill-rule:evenodd;stroke:none" d="m81.827 181.518 50.39-33.684c2.982-1.945 7.322-1.594 10.987-.116l43.128 16.375c4.78 1.927 2.953 5.302.613 6.898l-49.926 33.934c-4.181 2.852-8.488 3.887-11.963 2.326l-43.558-17.107c-4.442-1.995-4.963-5.175.329-8.626zm-58.285-22.163 49.834-31.361c4.35-2.686 9.058-2.955 12.637-1.508l34.783 13.57c4.667 1.888 3.52 4.972 1.184 6.451L71.276 179.07c-4.189 2.652-6.5 2.68-9.922 1.218l-39.745-16.155c-2.699-1.154-.52-3.263 1.933-4.778z"/><g style="opacity:.8"><path style="fill:#d82b2c;fill-opacity:1;fill-rule:evenodd;stroke:none" d="m192.398 347.707 13.739 53.993c.901 3.544 3.973 7.19 9.007 9.562l43.233 20.374c4.308 2.03 8.558 3.133 6.352-5.52l-13.78-54.06c-1.284-5.038-5.048-6.54-7.78-7.85l-45.107-21.642c-2.876-1.38-7.188-.845-5.664 5.143zm-28.473-86.235 16.172 54.428c1.022 3.438 2.96 7.839 9.57 10.85l43.876 19.983c4.25 1.936 7.781 2.305 5.494-6.15l-14.564-56.232c-1.332-4.922-2.711-7.841-7.238-9.693l-47.754-20.683c-5.767-2.36-7.735.165-5.556 7.497zm50.739 166.929 11.382 41.863c.885 3.358 2.464 10.189 6.988 12.917l45.97 26.649c3.871 2.335 5.734-2.097 3.942-8.842l-12.039-46.577c-1.267-4.77-4.762-7.602-7.292-8.971l-44.568-21.921c-4.14-2.242-5.878-.79-4.383 4.882zm-113.686-191.6 15.601 49.617c1.046 3.253 3.826 9.432 10.11 12.324l37.745 17.368c4.042 1.86 7.637 1.417 5.234-6.571l-14.757-49.05c-1.4-4.652-3.237-10.164-7.516-12.006l-40.41-17.394c-5.452-2.346-8.237-1.223-6.007 5.712zm-58.841-26.305 15.124 46.863c1.46 5.533 2.577 8.113 6.562 10.097l37.067 15.748c5.092 1.645 4.938-1.212 2.534-9l-13.03-43.6c-1.4-4.534-4.09-9.487-8.281-11.26l-34.108-14.429c-5.34-2.259-7.98-1.217-5.868 5.58zm86.886 109.593 13.541 46.509c.958 3.29 3.259 6.864 9.383 10.127l37.621 20.05c3.939 2.098 5.824.336 4.533-4.682l-12.413-48.244c-1.214-4.72-2.138-9.053-6.345-11.088l-41.012-19.835c-5.88-2.843-7.35.147-5.308 7.163zM68.13 288.28l15.118 48.645c1.353 5.453 2.579 7.172 8.607 10.026l33.561 16.509c3.877 1.835 5.31-.11 3.756-5.46l-14.096-49.929c-1.306-4.496-3.727-9.35-7.837-11.16l-35.91-17.149c-4.478-1.971-5.375 1.84-3.198 8.517zm80.641 108.329 12.739 42.308c.94 3.216 3.978 6.66 9.82 10.108l37.362 21.886c3.757 2.217 6.632.984 5.339-3.913l-12.135-45.94c-1.216-4.606-2.41-8.212-6.447-10.35l-41.254-21.57c-7.86-4.162-7.569.132-5.424 7.47zm-57.479-33.957 13.353 41.41c.971 3.2 2.345 7.214 8.161 10.682l36.233 21.254c3.74 2.231 6.3-.038 4.974-4.708l-13.926-44.39c-1.298-4.574-3.615-7.426-7.586-9.668l-37.127-20.836c-5.55-3.134-6.152-.567-4.082 6.256z" transform="translate(-24.24 -26.8)"/></g><path id="c" style="fill:url(#b);fill-opacity:1;fill-rule:evenodd;stroke:none;stroke-width:1.25;stroke-linecap:round;stroke-linejoin:round;stroke-miterlimit:4;stroke-dasharray:none;stroke-opacity:1" d="M209.92 246.221a5.516 5.516 0 1 1-11.03 0 5.516 5.516 0 0 1 11.03 0z"/><use xlink:href="#c" height="550" width="544" style="opacity:.6" transform="translate(-110.309 26.163)"/><use xlink:href="#c" height="550" width="544" style="opacity:.9" transform="translate(24.395 85.56)"/><use xlink:href="#c" height="550" width="544" style="opacity:.4" transform="translate(-87.328 102.53)"/><use xlink:href="#c" height="550" width="544" style="opacity:.5" transform="translate(-26.163 135.764)"/><use xlink:href="#c" height="550" width="544" style="opacity:.6" transform="translate(42.426 167.584)"/><use xlink:href="#c" height="550" width="544" transform="translate(-71.064 -30.052)"/><use xlink:href="#c" height="550" width="544" transform="translate(-134.704 -56.569)"/><use xlink:href="#c" height="550" width="544" style="opacity:.6" transform="translate(-45.255 53.74)"/><use xlink:href="#c" height="550" width="544" transform="translate(-8.485 -93.338)"/><use xlink:href="#c" height="550" width="544" transform="translate(60.811 -143.543)"/><use xlink:href="#c" height="550" width="544" transform="translate(131.522 -78.489)"/><use xlink:href="#c" height="550" width="544" transform="translate(205.061 -12.728)"/><use xlink:href="#c" height="550" width="544" transform="translate(135.057 40.305)"/><path id="e" style="opacity:.7;fill:url(#d);fill-opacity:1;fill-rule:evenodd;stroke:none;stroke-width:1.25;stroke-linecap:round;stroke-linejoin:round;stroke-miterlimit:4;stroke-dasharray:none;stroke-opacity:1" transform="rotate(41.302)" d="M277.949-100.105h88.035v12.374h-88.035z"/><use xlink:href="#e" height="550" width="544" style="opacity:.5" transform="rotate(2.439 -2534.146 413.903)"/><use xlink:href="#e" height="550" width="544" style="opacity:.5" transform="translate(76.5 67)"/><use xlink:href="#e" height="550" width="544" style="opacity:.3" transform="translate(-69.5 -65)"/><use xlink:href="#e" height="550" width="544" style="opacity:.4" transform="translate(-138 -15)"/><use xlink:href="#e" height="550" width="544" style="opacity:.3" transform="matrix(.78879 -.38434 .18192 .8914 -161.145 195.701)"/><use xlink:href="#e" height="550" width="544" style="opacity:.4" transform="matrix(.79534 -.3706 .16642 .89443 -94.038 217.841)"/><use xlink:href="#e" height="550" width="544" style="opacity:.2" transform="matrix(.78879 -.38434 .18192 .8914 -222.248 169.448)"/><use xlink:href="#e" height="550" width="544" style="opacity:.9" transform="matrix(.42194 .69078 -.85714 .0929 325.973 91.613)"/></svg>