<svg width="82" height="74" viewBox="0 0 82 74" fill="none" xmlns="http://www.w3.org/2000/svg">
<path d="M60.5965 25.4734H21.4023C23.6242 21.7851 26.5127 18.0525 30.0677 14.5419C42.1548 2.45485 56.8636 -2.47756 62.9071 3.6104C67.1731 7.83199 65.9735 16.497 60.5965 25.4734Z" stroke="#414040" stroke-miterlimit="10"/>
<path d="M21.4029 25.4732L41 59.4238C36.6895 59.335 32.0235 58.7128 27.1798 57.4241C10.649 52.9804 -0.949166 42.7152 1.27272 34.4498C2.82804 28.5395 10.9156 25.2955 21.4029 25.4732Z" stroke="#414040" stroke-miterlimit="10"/>
<path d="M41 59.3796L60.5971 25.429C62.6856 29.2062 64.4632 33.6056 65.7519 38.4049C70.1957 54.9357 67.085 70.1332 58.8196 72.3551C52.9538 73.9104 46.0659 68.5338 41 59.3796Z" stroke="#414040" stroke-miterlimit="10"/>
<path d="M21.402 25.4734H60.5961C58.3743 21.7851 55.4858 18.0525 51.9308 14.5419C39.8437 2.45485 25.1349 -2.47756 19.0914 3.6104C14.8253 7.83199 16.025 16.497 21.402 25.4734Z" stroke="#414040" stroke-miterlimit="10"/>
<path d="M60.5971 25.4732L41 59.4238C45.3105 59.335 49.9765 58.7128 54.8202 57.4241C71.351 52.9804 82.9492 42.7152 80.7273 34.4498C79.172 28.5395 71.0844 25.2955 60.5971 25.4732Z" stroke="#414040" stroke-miterlimit="10"/>
<path d="M41.0008 59.3795L21.4037 25.429C19.3152 29.2062 17.5376 33.6056 16.2489 38.4049C11.8051 54.9357 14.9158 70.1331 23.1812 72.355C29.047 73.9103 35.9349 68.5337 41.0008 59.3795Z" stroke="#414040" stroke-miterlimit="10"/>
</svg>
