<svg id="visual" viewBox="0 0 500 500" width="500" height="500" xmlns="http://www.w3.org/2000/svg" xmlns:xlink="http://www.w3.org/1999/xlink" version="1.1"><g stroke-width="1" stroke-linejoin="bevel"><path d="M224 251L145.7 259L173.7 303.3Z" fill="#c7c5d3" stroke="#c7c5d3"></path><path d="M166.7 145.7L102.3 199.7L145.7 259Z" fill="#9696ae" stroke="#9696ae"></path><path d="M145.7 259L62.3 277L173.7 303.3Z" fill="#8587a2" stroke="#8587a2"></path><path d="M173.7 303.3L244 360.3L224 251Z" fill="#c7c5d3" stroke="#c7c5d3"></path><path d="M332.3 129.7L229 154.7L224 251Z" fill="#9696ae" stroke="#9696ae"></path><path d="M224 251L166.7 145.7L145.7 259Z" fill="#a6a5ba" stroke="#a6a5ba"></path><path d="M229 154.7L166.7 145.7L224 251Z" fill="#b7b5c6" stroke="#b7b5c6"></path><path d="M102.3 199.7L62.3 277L145.7 259Z" fill="#b7b5c6" stroke="#b7b5c6"></path><path d="M173.7 303.3L213 408.7L244 360.3Z" fill="#646a8a" stroke="#646a8a"></path><path d="M142.7 450.7L213 408.7L173.7 303.3Z" fill="#646a8a" stroke="#646a8a"></path><path d="M62.3 277L61.3 344.3L173.7 303.3Z" fill="#b7b5c6" stroke="#b7b5c6"></path><path d="M363.3 349.3L357.3 287L244 360.3Z" fill="#646a8a" stroke="#646a8a"></path><path d="M244 360.3L357.3 287L224 251Z" fill="#424e74" stroke="#424e74"></path><path d="M332.3 129.7L273 109.3L229 154.7Z" fill="#757896" stroke="#757896"></path><path d="M229 154.7L186.7 77.3L166.7 145.7Z" fill="#646a8a" stroke="#646a8a"></path><path d="M273 109.3L186.7 77.3L229 154.7Z" fill="#646a8a" stroke="#646a8a"></path><path d="M166.7 145.7L95.3 70.3L102.3 199.7Z" fill="#304169" stroke="#304169"></path><path d="M61.3 344.3L142.7 450.7L173.7 303.3Z" fill="#b7b5c6" stroke="#b7b5c6"></path><path d="M62.3 277L0 309.3L61.3 344.3Z" fill="#9696ae" stroke="#9696ae"></path><path d="M61.3 344.3L47.3 442.7L142.7 450.7Z" fill="#646a8a" stroke="#646a8a"></path><path d="M0 216L0 309.3L62.3 277Z" fill="#545c7f" stroke="#545c7f"></path><path d="M0 216L62.3 277L102.3 199.7Z" fill="#c7c5d3" stroke="#c7c5d3"></path><path d="M0 199.7L0 216L102.3 199.7Z" fill="#304169" stroke="#304169"></path><path d="M340.3 421.7L244 360.3L213 408.7Z" fill="#424e74" stroke="#424e74"></path><path d="M340.3 421.7L363.3 349.3L244 360.3Z" fill="#545c7f" stroke="#545c7f"></path><path d="M0 106.3L0 199.7L102.3 199.7Z" fill="#304169" stroke="#304169"></path><path d="M357.3 287L332.3 129.7L224 251Z" fill="#757896" stroke="#757896"></path><path d="M215 0L186.7 0L186.7 77.3Z" fill="#424e74" stroke="#424e74"></path><path d="M186.7 77.3L95.3 70.3L166.7 145.7Z" fill="#424e74" stroke="#424e74"></path><path d="M269 500L340.3 421.7L213 408.7Z" fill="#646a8a" stroke="#646a8a"></path><path d="M0 404.7L47.3 442.7L61.3 344.3Z" fill="#a6a5ba" stroke="#a6a5ba"></path><path d="M0 309.3L0 404.7L61.3 344.3Z" fill="#9696ae" stroke="#9696ae"></path><path d="M357.3 287L396.7 161.7L332.3 129.7Z" fill="#424e74" stroke="#424e74"></path><path d="M422.7 221L396.7 161.7L357.3 287Z" fill="#c7c5d3" stroke="#c7c5d3"></path><path d="M381.7 88.3L328.3 76.3L332.3 129.7Z" fill="#8587a2" stroke="#8587a2"></path><path d="M332.3 129.7L328.3 76.3L273 109.3Z" fill="#304169" stroke="#304169"></path><path d="M186.7 77.3L186.7 0L95.3 70.3Z" fill="#c7c5d3" stroke="#c7c5d3"></path><path d="M74.3 500L153.7 500L142.7 450.7Z" fill="#8587a2" stroke="#8587a2"></path><path d="M142.7 450.7L153.7 500L213 408.7Z" fill="#424e74" stroke="#424e74"></path><path d="M433.7 367.3L357.3 287L363.3 349.3Z" fill="#424e74" stroke="#424e74"></path><path d="M433.7 367.3L422.7 221L357.3 287Z" fill="#8587a2" stroke="#8587a2"></path><path d="M95.3 70.3L0 106.3L102.3 199.7Z" fill="#646a8a" stroke="#646a8a"></path><path d="M153.7 500L269 500L213 408.7Z" fill="#a6a5ba" stroke="#a6a5ba"></path><path d="M47.3 442.7L74.3 500L142.7 450.7Z" fill="#8587a2" stroke="#8587a2"></path><path d="M0 500L74.3 500L47.3 442.7Z" fill="#b7b5c6" stroke="#b7b5c6"></path><path d="M500 46.3L381.7 88.3L396.7 161.7Z" fill="#757896" stroke="#757896"></path><path d="M396.7 161.7L381.7 88.3L332.3 129.7Z" fill="#9696ae" stroke="#9696ae"></path><path d="M215 0L186.7 77.3L273 109.3Z" fill="#a6a5ba" stroke="#a6a5ba"></path><path d="M95.3 70.3L58.3 0L0 106.3Z" fill="#646a8a" stroke="#646a8a"></path><path d="M215 0L273 109.3L328.3 76.3Z" fill="#a6a5ba" stroke="#a6a5ba"></path><path d="M360.3 0L215 0L328.3 76.3Z" fill="#424e74" stroke="#424e74"></path><path d="M427.7 414.7L363.3 349.3L340.3 421.7Z" fill="#646a8a" stroke="#646a8a"></path><path d="M427.7 414.7L433.7 367.3L363.3 349.3Z" fill="#8587a2" stroke="#8587a2"></path><path d="M361.3 500L427.7 414.7L340.3 421.7Z" fill="#9696ae" stroke="#9696ae"></path><path d="M269 500L361.3 500L340.3 421.7Z" fill="#545c7f" stroke="#545c7f"></path><path d="M186.7 0L58.3 0L95.3 70.3Z" fill="#8587a2" stroke="#8587a2"></path><path d="M0 404.7L0 500L47.3 442.7Z" fill="#757896" stroke="#757896"></path><path d="M500 324.3L500 257L422.7 221Z" fill="#b7b5c6" stroke="#b7b5c6"></path><path d="M422.7 221L500 202.7L396.7 161.7Z" fill="#1c355e" stroke="#1c355e"></path><path d="M500 324.3L422.7 221L433.7 367.3Z" fill="#b7b5c6" stroke="#b7b5c6"></path><path d="M430.7 0L360.3 0L381.7 88.3Z" fill="#8587a2" stroke="#8587a2"></path><path d="M381.7 88.3L360.3 0L328.3 76.3Z" fill="#646a8a" stroke="#646a8a"></path><path d="M500 408.7L500 324.3L433.7 367.3Z" fill="#424e74" stroke="#424e74"></path><path d="M500 408.7L433.7 367.3L427.7 414.7Z" fill="#424e74" stroke="#424e74"></path><path d="M500 257L500 202.7L422.7 221Z" fill="#c7c5d3" stroke="#c7c5d3"></path><path d="M58.3 0L0 0L0 106.3Z" fill="#424e74" stroke="#424e74"></path><path d="M361.3 500L427.7 500L427.7 414.7Z" fill="#b7b5c6" stroke="#b7b5c6"></path><path d="M500 500L500 408.7L427.7 414.7Z" fill="#1c355e" stroke="#1c355e"></path><path d="M500 46.3L430.7 0L381.7 88.3Z" fill="#9696ae" stroke="#9696ae"></path><path d="M500 202.7L500 46.3L396.7 161.7Z" fill="#646a8a" stroke="#646a8a"></path><path d="M427.7 500L500 500L427.7 414.7Z" fill="#9696ae" stroke="#9696ae"></path><path d="M500 46.3L500 0L430.7 0Z" fill="#c7c5d3" stroke="#c7c5d3"></path></g></svg>