<svg width="80" height="80" viewBox="0 0 80 80" fill="none" xmlns="http://www.w3.org/2000/svg">
<g clip-path="url(#clip0_692_7032)">
<path d="M40 0H30V10H40V0Z" fill="none" stroke="#FFFFFF" stroke-miterlimit="10" stroke-linejoin="round"/>
<path d="M30 10H20V20H30V10Z" fill="none" stroke="#FFFFFF" stroke-miterlimit="10" stroke-linejoin="round"/>
<path d="M20 10H10V20H20V10Z" fill="none" stroke="#FFFFFF" stroke-miterlimit="10" stroke-linejoin="round"/>
<path d="M40 10H30V20H40V10Z" fill="none" stroke="#FFFFFF" stroke-miterlimit="10" stroke-linejoin="round"/>
<path d="M20 20H10V30H20V20Z" fill="none" stroke="#FFFFFF" stroke-miterlimit="10" stroke-linejoin="round"/>
<path d="M10 30H0V40H10V30Z" fill="none" stroke="#FFFFFF" stroke-miterlimit="10" stroke-linejoin="round"/>
<path d="M20 30H10V40H20V30Z" fill="none" stroke="#FFFFFF" stroke-miterlimit="10" stroke-linejoin="round"/>
<path d="M30 20H20V30H30V20Z" fill="none" stroke="#FFFFFF" stroke-miterlimit="10" stroke-linejoin="round"/>
<path d="M40 20H30V30H40V20Z" fill="none" stroke="#FFFFFF" stroke-miterlimit="10" stroke-linejoin="round"/>
<path d="M30 30H20V40H30V30Z" fill="none" stroke="#FFFFFF" stroke-miterlimit="10" stroke-linejoin="round"/>
<path d="M40 30H30V40H40V30Z" fill="none" stroke="#FFFFFF" stroke-miterlimit="10" stroke-linejoin="round"/>
<path d="M50 0H40V10H50V0Z" fill="none" stroke="#FFFFFF" stroke-miterlimit="10" stroke-linejoin="round"/>
<path d="M50 10H40V20H50V10Z" fill="none" stroke="#FFFFFF" stroke-miterlimit="10" stroke-linejoin="round"/>
<path d="M60 10H50V20H60V10Z" fill="none" stroke="#FFFFFF" stroke-miterlimit="10" stroke-linejoin="round"/>
<path d="M50 20H40V30H50V20Z" fill="none" stroke="#FFFFFF" stroke-miterlimit="10" stroke-linejoin="round"/>
<path d="M60 20H50V30H60V20Z" fill="none" stroke="#FFFFFF" stroke-miterlimit="10" stroke-linejoin="round"/>
<path d="M50 30H40V40H50V30Z" fill="none" stroke="#FFFFFF" stroke-miterlimit="10" stroke-linejoin="round"/>
<path d="M60 30H50V40H60V30Z" fill="none" stroke="#FFFFFF" stroke-miterlimit="10" stroke-linejoin="round"/>
<path d="M70 20H60V30H70V20Z" fill="none" stroke="#FFFFFF" stroke-miterlimit="10" stroke-linejoin="round"/>
<path d="M70 10H60V20H70V10Z" fill="none" stroke="#FFFFFF" stroke-miterlimit="10" stroke-linejoin="round"/>
<path d="M70 30H60V40H70V30Z" fill="none" stroke="#FFFFFF" stroke-miterlimit="10" stroke-linejoin="round"/>
<path d="M80 30H70V40H80V30Z" fill="none" stroke="#FFFFFF" stroke-miterlimit="10" stroke-linejoin="round"/>
<path d="M10 40H0V50H10V40Z" fill="none" stroke="#FFFFFF" stroke-miterlimit="10" stroke-linejoin="round"/>
<path d="M20 40H10V50H20V40Z" fill="none" stroke="#FFFFFF" stroke-miterlimit="10" stroke-linejoin="round"/>
<path d="M20 50H10V60H20V50Z" fill="none" stroke="#FFFFFF" stroke-miterlimit="10" stroke-linejoin="round"/>
<path d="M30 40H20V50H30V40Z" fill="none" stroke="#FFFFFF" stroke-miterlimit="10" stroke-linejoin="round"/>
<path d="M40 40H30V50H40V40Z" fill="none" stroke="#FFFFFF" stroke-miterlimit="10" stroke-linejoin="round"/>
<path d="M30 50H20V60H30V50Z" fill="none" stroke="#FFFFFF" stroke-miterlimit="10" stroke-linejoin="round"/>
<path d="M40 50H30V60H40V50Z" fill="none" stroke="#FFFFFF" stroke-miterlimit="10" stroke-linejoin="round"/>
<path d="M20 60H10V70H20V60Z" fill="none" stroke="#FFFFFF" stroke-miterlimit="10" stroke-linejoin="round"/>
<path d="M30 60H20V70H30V60Z" fill="none" stroke="#FFFFFF" stroke-miterlimit="10" stroke-linejoin="round"/>
<path d="M40 60H30V70H40V60Z" fill="none" stroke="#FFFFFF" stroke-miterlimit="10" stroke-linejoin="round"/>
<path d="M40 70H30V80H40V70Z" fill="none" stroke="#FFFFFF" stroke-miterlimit="10" stroke-linejoin="round"/>
<path d="M50 40H40V50H50V40Z" fill="none" stroke="#FFFFFF" stroke-miterlimit="10" stroke-linejoin="round"/>
<path d="M60 40H50V50H60V40Z" fill="none" stroke="#FFFFFF" stroke-miterlimit="10" stroke-linejoin="round"/>
<path d="M50 50H40V60H50V50Z" fill="none" stroke="#FFFFFF" stroke-miterlimit="10" stroke-linejoin="round"/>
<path d="M60 50H50V60H60V50Z" fill="none" stroke="#FFFFFF" stroke-miterlimit="10" stroke-linejoin="round"/>
<path d="M70 40H60V50H70V40Z" fill="none" stroke="#FFFFFF" stroke-miterlimit="10" stroke-linejoin="round"/>
<path d="M80 40H70V50H80V40Z" fill="none" stroke="#FFFFFF" stroke-miterlimit="10" stroke-linejoin="round"/>
<path d="M70 50H60V60H70V50Z" fill="none" stroke="#FFFFFF" stroke-miterlimit="10" stroke-linejoin="round"/>
<path d="M50 60H40V70H50V60Z" fill="none" stroke="#FFFFFF" stroke-miterlimit="10" stroke-linejoin="round"/>
<path d="M60 60H50V70H60V60Z" fill="none" stroke="#FFFFFF" stroke-miterlimit="10" stroke-linejoin="round"/>
<path d="M50 70H40V80H50V70Z" fill="none" stroke="#FFFFFF" stroke-miterlimit="10" stroke-linejoin="round"/>
<path d="M70 60H60V70H70V60Z" fill="none" stroke="#FFFFFF" stroke-miterlimit="10" stroke-linejoin="round"/>
</g>
<defs>
<clipPath id="clip0_692_7032">
<rect width="80" height="80" fill="white"/>
</clipPath>
</defs>
</svg>
