<svg width="82" height="82" viewBox="0 0 82 82" fill="none" xmlns="http://www.w3.org/2000/svg">
<path d="M65 41H81V57H65C60.6 57 57 60.6 57 65H41C41 51.7111 51.7556 41 65 41Z" stroke="#FFFFFF" stroke-miterlimit="10" stroke-linejoin="round"/>
<path d="M57 81H41V65H57C61.4 65 65 61.4 65 57H81C81 70.2444 70.2444 81 57 81Z" stroke="#FFFFFF" stroke-miterlimit="10" stroke-linejoin="round"/>
<path d="M25 1H41V17H25C20.6 17 17 20.6 17 25H1C1 11.7111 11.7556 1 25 1Z" stroke="#FFFFFF" stroke-miterlimit="10" stroke-linejoin="round"/>
<path d="M17 41H1V25H17C21.4 25 25 21.4 25 17H41C41 30.2444 30.2444 41 17 41Z" stroke="#FFFFFF" stroke-miterlimit="10" stroke-linejoin="round"/>
<path d="M41 65V81H25V65C25 60.6 21.4 57 17 57V41C30.2444 41 41 51.7111 41 65Z" stroke="#FFFFFF" stroke-miterlimit="10" stroke-linejoin="round"/>
<path d="M1 57V41H17V57C17 61.4 20.6 65 25 65V81C11.7556 81 1 70.2444 1 57Z" stroke="#FFFFFF" stroke-miterlimit="10" stroke-linejoin="round"/>
<path d="M41 17V1H57V17C57 21.4 60.6 25 65 25V41C51.7556 41 41 30.2444 41 17Z" stroke="#FFFFFF" stroke-miterlimit="10" stroke-linejoin="round"/>
<path d="M81 25V41H65V25C65 20.6 61.4 17 57 17V1C70.2444 1 81 11.7111 81 25Z" stroke="#FFFFFF" stroke-miterlimit="10" stroke-linejoin="round"/>
</svg>
